<svg xmlns="http://www.w3.org/2000/svg" xmlns:xlink="http://www.w3.org/1999/xlink" viewBox="0 0 1428 159"><defs><style>.cls-1,.cls-10{fill:none;}.cls-2{isolation:isolate;}.cls-3{fill:url(#linear-gradient);}.cls-4,.cls-5{mix-blend-mode:multiply;}.cls-4{fill:url(#linear-gradient-2);}.cls-5{fill:#ffc400;}.cls-6{clip-path:url(#clip-path);}.cls-7{clip-path:url(#clip-path-2);}.cls-8{fill:#0065ff;}.cls-9{clip-path:url(#clip-path-3);}.cls-10{stroke:#091e42;stroke-linecap:round;stroke-miterlimit:10;stroke-width:2.39px;}</style><linearGradient id="linear-gradient" x1="22085.39" y1="6.72" x2="22085.39" y2="158.91" gradientTransform="matrix(-1, 0, 0, 1, 22337.38, 0)" gradientUnits="userSpaceOnUse"><stop offset="0" stop-color="#b3f5ff"/><stop offset="1" stop-color="#79e2f2"/></linearGradient><linearGradient id="linear-gradient-2" x1="23760.09" y1="3235.38" x2="23760.09" y2="3375" gradientTransform="translate(24916.03 3394) rotate(180)" gradientUnits="userSpaceOnUse"><stop offset="0" stop-color="#ffbdad"/><stop offset="1" stop-color="#ffebe5"/></linearGradient><clipPath id="clip-path"><rect class="cls-1" x="1186.96" y="-40.12" width="248.89" height="198.77"/></clipPath><clipPath id="clip-path-2"><rect class="cls-1" x="1088.79" y="-76.47" width="1045.08" height="217.56" transform="translate(151.92 716.1) rotate(-26.25)"/></clipPath><clipPath id="clip-path-3"><rect class="cls-1" x="-0.05" y="74.75" width="190.33" height="83.9"/></clipPath></defs><title>Artboard 35Enterprise Pieces</title><g class="cls-2"><g id="Layer_1" data-name="Layer 1"><path class="cls-3" d="M252,6.72A76.1,76.1,0,1,1,175.9,82.81H252Z"/><polyline class="cls-4" points="1087.03 158.62 1155.94 19 1224.84 158.62"/><polyline class="cls-5" points="146.74 21.25 146.74 158.62 284.11 158.62"/><g class="cls-6"><g class="cls-7"><path class="cls-8" d="M2148.68-159.1c-55.27,34.75-77.48-5-136,23.9s-41.36,63.72-99.92,92.6-75.74-6-134.29,22.92S1737.06,44,1678.5,72.92s-75.74-6-134.29,22.92-41.37,63.72-99.93,92.61-75.74-6-134.3,22.92-41.37,63.72-99.93,92.6-71.25-.58-132.46,22.13c-6.33,2.35-13.65,20.76-16.63,14.71s31.86-23.23,28.87-29.28S1052,322.67,1049,316.62s31.86-23.23,28.88-29.28-37.82,11.14-40.81,5.09S1069,269.2,1066,263.14s-37.83,11.14-40.81,5.09S1057,245,1054,238.94s-39.44-16.36-33.73-19.95c55.28-34.75,77.49,5,136-23.9s41.37-63.72,99.92-92.6,75.74,6,134.3-22.92,41.37-63.72,99.92-92.6,75.74,6,134.3-22.92,41.37-63.73,99.92-92.61,75.74,6,134.3-22.92,41.37-63.72,99.93-92.6,71.25.58,132.47-22.13c6.32-2.35,13.64-20.76,16.63-14.71s-31.86,23.23-28.88,29.28,37.83-11.14,40.81-5.09-31.86,23.23-28.88,29.28,37.83-11.14,40.81-5.09S2100-209.31,2103-203.26s37.82-11.13,40.81-5.08-31,27-27,32.4C2127.21-162.25,2154.4-162.69,2148.68-159.1Z"/></g></g><g class="cls-9"><path class="cls-10" d="M9.37,167.41a85.23,85.23,0,1,1,170.45,0"/><path class="cls-10" d="M167.65,167.4a73.06,73.06,0,0,0-146.11,0"/><path class="cls-10" d="M33.72,167.41a60.88,60.88,0,0,1,121.75,0"/><path class="cls-10" d="M143.3,167.4a48.71,48.71,0,1,0-97.41,0"/></g></g></g></svg>