<svg xmlns="http://www.w3.org/2000/svg" xmlns:xlink="http://www.w3.org/1999/xlink" viewBox="0 0 426 548"><defs><style>.cls-1{isolation:isolate;}.cls-2,.cls-4{fill:#ffc400;}.cls-2,.cls-9{mix-blend-mode:multiply;}.cls-3{fill:url(#linear-gradient);}.cls-5{fill:#0065ff;}.cls-6{fill:url(#linear-gradient-2);}.cls-7{fill:none;stroke:#fff;stroke-miterlimit:10;stroke-width:1.35px;}.cls-8{fill:url(#linear-gradient-3);}.cls-9{fill:#ff5630;}.cls-10{fill:url(#linear-gradient-4);}.cls-11{fill:#091e42;}</style><linearGradient id="linear-gradient" x1="25.81" y1="204.29" x2="213.69" y2="204.29" gradientUnits="userSpaceOnUse"><stop offset="0" stop-color="#ffebe5"/><stop offset="1" stop-color="#ffbdad"/></linearGradient><linearGradient id="linear-gradient-2" x1="25.84" y1="391.94" x2="151.05" y2="391.94" gradientUnits="userSpaceOnUse"><stop offset="0.21" stop-color="#79d5e5"/><stop offset="1" stop-color="#a6e8ff"/></linearGradient><linearGradient id="linear-gradient-3" x1="25.8" y1="454.32" x2="150.57" y2="454.32" xlink:href="#linear-gradient"/><linearGradient id="linear-gradient-4" x1="-3301.41" y1="-3405.04" x2="-3051.79" y2="-3405.04" gradientTransform="translate(3680.42 -2753.52) rotate(-90)" xlink:href="#linear-gradient-2"/></defs><title>enterprise-built-02</title><g class="cls-1"><g id="Layer_1" data-name="Layer 1"><rect class="cls-2" x="188.85" y="201.5" width="221.65" height="21.68" transform="translate(237.92 -149.71) rotate(45)"/><polygon class="cls-3" points="25.82 298.23 213.69 110.35 213.69 298.23 25.82 298.23"/><polygon class="cls-4" points="25.87 423.18 88.42 360.63 25.91 298.12 25.87 423.18"/><polyline class="cls-5" points="400.2 298.31 275.59 422.92 150.91 298.23"/><polyline class="cls-4" points="150.33 423.23 213.17 360.38 276.06 423.27"/><polyline class="cls-6" points="25.84 423.21 88.42 360.63 151.05 423.25"/><path class="cls-4" d="M25.8,548a62.39,62.39,0,0,1,124.77,0"/><path class="cls-7" d="M46.6,548a41.59,41.59,0,1,1,83.17,0"/><path class="cls-7" d="M67.39,548A20.8,20.8,0,0,1,109,548"/><path class="cls-8" d="M150.57,423.12a62.39,62.39,0,1,1-124.77,0"/><circle class="cls-9" cx="275.55" cy="236.34" r="61.9"/><polyline class="cls-10" points="150.57 547.9 400.19 547.9 400.19 298.28"/><path class="cls-11" d="M150.64,335.24a25,25,0,1,1-25,25.05,25.07,25.07,0,0,1,25-25.05m0-19.16a44.21,44.21,0,1,0,44.2,44.21,44.21,44.21,0,0,0-44.2-44.21Z"/><polyline class="cls-11" points="275.47 423.01 150.57 423.01 150.57 547.9"/></g></g></svg>