<svg xmlns="http://www.w3.org/2000/svg" viewBox="0 0 60 60"><defs><style>.cls-1,.cls-2{fill:#243858;}.cls-2{opacity:0.5;}</style></defs><title>Artboard 23</title><g id="Layer_10" data-name="Layer 10"><path class="cls-1" d="M30.3,20.8A19.6,19.6,0,1,0,49.9,40.4,19.6,19.6,0,0,0,30.3,20.8Zm7.84,30.05L30.3,46l-7.84,4.9,2.62-9.14-6.53-5.23h7.83l3.92-7.84,3.92,7.84h7.84l-6.53,5.23Z"/><polygon class="cls-1" points="22 15.6 14.52 -0.1 8.91 -0.1 17.61 18.27 22 15.6"/><polygon class="cls-1" points="1.45 -0.1 11.93 21.73 16.18 19.14 7.06 -0.1 1.45 -0.1"/><polygon class="cls-2" points="7.06 -0.1 16.18 19.14 17.61 18.27 8.91 -0.1 7.06 -0.1"/><polygon class="cls-1" points="38.5 15.6 45.98 -0.1 51.59 -0.1 42.89 18.27 38.5 15.6"/><polygon class="cls-1" points="59.05 -0.1 48.57 21.73 44.31 19.14 53.44 -0.1 59.05 -0.1"/><polygon class="cls-2" points="53.44 -0.1 44.31 19.14 42.89 18.27 51.59 -0.1 53.44 -0.1"/></g></svg>