<svg xmlns="http://www.w3.org/2000/svg" xmlns:xlink="http://www.w3.org/1999/xlink" viewBox="0 0 441 301"><defs><style>.cls-1{fill:none;}.cls-2{isolation:isolate;}.cls-10,.cls-11,.cls-12,.cls-3,.cls-4,.cls-5,.cls-6,.cls-7,.cls-8,.cls-9{fill:#ffbdad;stroke-linecap:round;stroke-width:2px;opacity:0.5;}.cls-10,.cls-11,.cls-12,.cls-14,.cls-16,.cls-19,.cls-3,.cls-4,.cls-5,.cls-6,.cls-7,.cls-8,.cls-9{stroke-miterlimit:10;}.cls-3{stroke:url(#linear-gradient);}.cls-4{stroke:url(#linear-gradient-2);}.cls-5{stroke:url(#linear-gradient-3);}.cls-6{stroke:url(#linear-gradient-4);}.cls-7{stroke:url(#linear-gradient-5);}.cls-8{stroke:url(#linear-gradient-6);}.cls-9{stroke:url(#linear-gradient-7);}.cls-10{stroke:url(#linear-gradient-8);}.cls-11{stroke:url(#linear-gradient-9);}.cls-12{stroke:url(#linear-gradient-10);}.cls-13{clip-path:url(#clip-path);}.cls-14,.cls-16{fill:#fff;stroke:#fff;}.cls-14{stroke-width:1.45px;}.cls-15{fill:url(#linear-gradient-11);}.cls-16{stroke-width:1.26px;}.cls-17{clip-path:url(#clip-path-2);}.cls-18{fill:#0065ff;}.cls-19,.cls-21{fill:#ffc400;}.cls-19{stroke:#091e42;stroke-width:2.5px;}.cls-20{mix-blend-mode:multiply;}</style><linearGradient id="linear-gradient" x1="0.75" y1="176.1" x2="439.64" y2="176.1" gradientUnits="userSpaceOnUse"><stop offset="0" stop-color="#091e42" stop-opacity="0.02"/><stop offset="0.1" stop-color="#091e42" stop-opacity="0.85"/><stop offset="0.54" stop-color="#091e42" stop-opacity="0.96"/><stop offset="0.92" stop-color="#091e42" stop-opacity="0.85"/><stop offset="1" stop-color="#091e42" stop-opacity="0.02"/></linearGradient><linearGradient id="linear-gradient-2" x1="14.96" y1="113.28" x2="415.02" y2="113.28" gradientUnits="userSpaceOnUse"><stop offset="0" stop-color="#091e42" stop-opacity="0.02"/><stop offset="0.05" stop-color="#091e42" stop-opacity="0.85"/><stop offset="0.54" stop-color="#091e42" stop-opacity="0.96"/><stop offset="0.95" stop-color="#091e42" stop-opacity="0.85"/><stop offset="1" stop-color="#091e42" stop-opacity="0.02"/></linearGradient><linearGradient id="linear-gradient-3" x1="5.18" y1="48.38" x2="433.58" y2="48.38" gradientUnits="userSpaceOnUse"><stop offset="0" stop-color="#091e42" stop-opacity="0.02"/><stop offset="0.11" stop-color="#091e42" stop-opacity="0.85"/><stop offset="0.54" stop-color="#091e42" stop-opacity="0.96"/><stop offset="0.92" stop-color="#091e42" stop-opacity="0.85"/><stop offset="1" stop-color="#091e42" stop-opacity="0.02"/></linearGradient><linearGradient id="linear-gradient-4" x1="26.82" y1="240.18" x2="422.16" y2="240.18" gradientUnits="userSpaceOnUse"><stop offset="0" stop-color="#091e42" stop-opacity="0.02"/><stop offset="0.08" stop-color="#091e42" stop-opacity="0.85"/><stop offset="0.54" stop-color="#091e42" stop-opacity="0.96"/><stop offset="0.91" stop-color="#091e42" stop-opacity="0.85"/><stop offset="1" stop-color="#091e42" stop-opacity="0.02"/></linearGradient><linearGradient id="linear-gradient-5" x1="67.49" y1="300" x2="67.49" y2="8.45" gradientUnits="userSpaceOnUse"><stop offset="0" stop-color="#091e42" stop-opacity="0.02"/><stop offset="0.54" stop-color="#091e42" stop-opacity="0.96"/><stop offset="0.89" stop-color="#091e42" stop-opacity="0.96"/><stop offset="1" stop-color="#091e42" stop-opacity="0.02"/></linearGradient><linearGradient id="linear-gradient-6" x1="259.38" y1="242.59" x2="259.38" y2="46.86" xlink:href="#linear-gradient-5"/><linearGradient id="linear-gradient-7" x1="322.38" y1="297.59" x2="322.38" y2="15.86" xlink:href="#linear-gradient-5"/><linearGradient id="linear-gradient-8" x1="385.38" y1="277.59" x2="385.38" y2="3.86" xlink:href="#linear-gradient-5"/><linearGradient id="linear-gradient-9" x1="194.18" y1="241.38" x2="194.18" y2="50.3" xlink:href="#linear-gradient-5"/><linearGradient id="linear-gradient-10" x1="129.76" y1="281.2" x2="129.76" y2="1" gradientUnits="userSpaceOnUse"><stop offset="0" stop-color="#091e42" stop-opacity="0.02"/><stop offset="0.54" stop-color="#091e42" stop-opacity="0.96"/><stop offset="0.83" stop-color="#091e42" stop-opacity="0.96"/><stop offset="1" stop-color="#091e42" stop-opacity="0.02"/></linearGradient><clipPath id="clip-path"><rect class="cls-1" x="131.25" y="48.66" width="190.3" height="190.3" transform="translate(168 -117.97) rotate(45)"/></clipPath><linearGradient id="linear-gradient-11" x1="226.41" y1="278.38" x2="226.41" y2="9.24" gradientTransform="translate(-35.38 202.21) rotate(-45)" gradientUnits="userSpaceOnUse"><stop offset="0" stop-color="#79e2f2"/><stop offset="0.52" stop-color="#b3f5ff"/></linearGradient><clipPath id="clip-path-2"><rect class="cls-1" x="219.63" y="1.95" width="149.76" height="142.95"/></clipPath></defs><title>Artboard 37Enterprise Pieces</title><g class="cls-2"><g id="Layer_1" data-name="Layer 1"><line class="cls-3" x1="438.64" y1="175.91" x2="1.75" y2="176.28"/><line class="cls-4" x1="414.02" y1="113.1" x2="15.96" y2="113.47"/><line class="cls-5" x1="432.58" y1="48.2" x2="6.18" y2="48.57"/><line class="cls-6" x1="421.16" y1="240" x2="27.82" y2="240.37"/><line class="cls-7" x1="68.04" y1="299" x2="66.94" y2="9.45"/><line class="cls-8" x1="259.93" y1="241.59" x2="258.83" y2="47.86"/><line class="cls-9" x1="322.93" y1="296.59" x2="321.83" y2="16.86"/><line class="cls-10" x1="385.93" y1="276.59" x2="384.83" y2="4.86"/><line class="cls-11" x1="194.73" y1="240.38" x2="193.62" y2="51.3"/><line class="cls-12" x1="130.32" y1="280.2" x2="129.21" y2="2"/></g><g id="Layer_2" data-name="Layer 2"><g class="cls-13"><line class="cls-14" x1="11.12" y1="263.14" x2="-157.08" y2="263.52"/><rect class="cls-15" x="131.25" y="48.66" width="190.3" height="190.3" transform="translate(168 -117.97) rotate(45)"/><line class="cls-16" x1="365.83" y1="260.13" x2="364.84" y2="9.11"/><g class="cls-17"><polyline class="cls-18" points="226.48 8.81 362.58 144.91 226.48 281"/></g><line class="cls-19" x1="368.02" y1="145.07" x2="81.51" y2="145.07"/><line class="cls-19" x1="226.36" y1="4.99" x2="226.36" y2="288"/></g><g class="cls-20"><path class="cls-21" d="M288.13,66A16.18,16.18,0,1,1,272,82.15h0A16.19,16.19,0,0,1,288.13,66m0-11.67A27.85,27.85,0,1,0,316,82.15,27.85,27.85,0,0,0,288.13,54.3Z"/></g><circle class="cls-18" cx="195.5" cy="223.5" r="5.5"/><circle class="cls-18" cx="169.5" cy="240.5" r="5.5"/><circle class="cls-18" cx="155.5" cy="270.5" r="5.5"/><circle class="cls-18" cx="239.5" cy="192.5" r="5.5"/><circle class="cls-18" cx="210.5" cy="113.5" r="5.5"/><circle class="cls-18" cx="253.5" cy="162.5" r="5.5"/><circle class="cls-18" cx="130.5" cy="258.5" r="5.5"/><circle class="cls-18" cx="201.5" cy="219.5" r="5.5"/><circle class="cls-18" cx="227.5" cy="174.5" r="5.5"/><circle class="cls-18" cx="176.5" cy="191.5" r="5.5"/><circle class="cls-18" cx="224.5" cy="223.5" r="5.5"/><circle class="cls-18" cx="229.5" cy="146.5" r="5.5"/></g></g></svg>